<mxfile host="app.diagrams.net" agent="Mozilla/5.0 (Windows NT 10.0; Win64; x64; rv:132.0) Gecko/20100101 Firefox/132.0" version="24.8.4">
  <diagram name="Page-1" id="AXeTOOnDzoz0pTdw2fNc">
    <mxGraphModel dx="957" dy="431" grid="1" gridSize="10" guides="1" tooltips="1" connect="1" arrows="1" fold="1" page="1" pageScale="1" pageWidth="850" pageHeight="1100" math="0" shadow="0">
      <root>
        <mxCell id="0" />
        <mxCell id="1" parent="0" />
        <mxCell id="WCPhoEuETA85OgyPvUWW-1" value="Agent Design" style="shape=module;align=left;spacingLeft=20;align=center;verticalAlign=top;whiteSpace=wrap;html=1;" parent="1" vertex="1">
          <mxGeometry x="130" y="60" width="510" height="380" as="geometry" />
        </mxCell>
        <mxCell id="WCPhoEuETA85OgyPvUWW-9" style="edgeStyle=orthogonalEdgeStyle;rounded=0;orthogonalLoop=1;jettySize=auto;html=1;" parent="1" source="WCPhoEuETA85OgyPvUWW-2" target="WCPhoEuETA85OgyPvUWW-8" edge="1">
          <mxGeometry relative="1" as="geometry" />
        </mxCell>
        <mxCell id="WCPhoEuETA85OgyPvUWW-2" value="Orders" style="ellipse;whiteSpace=wrap;html=1;aspect=fixed;" parent="1" vertex="1">
          <mxGeometry x="60" y="65" width="40" height="40" as="geometry" />
        </mxCell>
        <mxCell id="WCPhoEuETA85OgyPvUWW-8" value="" style="outlineConnect=0;dashed=0;verticalLabelPosition=bottom;verticalAlign=top;align=center;html=1;shape=mxgraph.aws3.queue;fillColor=#D9A741;gradientColor=none;" parent="1" vertex="1">
          <mxGeometry x="178" y="74" width="73.5" height="20" as="geometry" />
        </mxCell>
        <mxCell id="WCPhoEuETA85OgyPvUWW-23" style="edgeStyle=orthogonalEdgeStyle;rounded=0;orthogonalLoop=1;jettySize=auto;html=1;" parent="1" source="WCPhoEuETA85OgyPvUWW-10" target="WCPhoEuETA85OgyPvUWW-12" edge="1">
          <mxGeometry relative="1" as="geometry" />
        </mxCell>
        <mxCell id="WCPhoEuETA85OgyPvUWW-10" value="" style="sketch=0;pointerEvents=1;shadow=0;dashed=0;html=1;strokeColor=none;labelPosition=center;verticalLabelPosition=bottom;verticalAlign=top;align=center;fillColor=#505050;shape=mxgraph.mscae.oms.config_assessment" parent="1" vertex="1">
          <mxGeometry x="338" y="170" width="50" height="45" as="geometry" />
        </mxCell>
        <mxCell id="WCPhoEuETA85OgyPvUWW-11" style="edgeStyle=orthogonalEdgeStyle;rounded=0;orthogonalLoop=1;jettySize=auto;html=1;entryX=0.311;entryY=0.029;entryDx=0;entryDy=0;entryPerimeter=0;" parent="1" source="WCPhoEuETA85OgyPvUWW-8" target="WCPhoEuETA85OgyPvUWW-10" edge="1">
          <mxGeometry relative="1" as="geometry" />
        </mxCell>
        <mxCell id="WCPhoEuETA85OgyPvUWW-17" style="edgeStyle=orthogonalEdgeStyle;rounded=0;orthogonalLoop=1;jettySize=auto;html=1;" parent="1" source="WCPhoEuETA85OgyPvUWW-12" edge="1">
          <mxGeometry relative="1" as="geometry">
            <mxPoint x="170" y="90" as="targetPoint" />
          </mxGeometry>
        </mxCell>
        <mxCell id="WCPhoEuETA85OgyPvUWW-12" value="" style="outlineConnect=0;dashed=0;verticalLabelPosition=bottom;verticalAlign=top;align=center;html=1;shape=mxgraph.aws3.queue;fillColor=#D9A741;gradientColor=none;" parent="1" vertex="1">
          <mxGeometry x="325.25" y="280" width="73.5" height="20" as="geometry" />
        </mxCell>
        <mxCell id="WCPhoEuETA85OgyPvUWW-14" value="G0" style="text;html=1;align=center;verticalAlign=middle;whiteSpace=wrap;rounded=0;" parent="1" vertex="1">
          <mxGeometry x="418" y="273" width="26.25" height="30" as="geometry" />
        </mxCell>
        <mxCell id="WCPhoEuETA85OgyPvUWW-24" style="edgeStyle=orthogonalEdgeStyle;rounded=0;orthogonalLoop=1;jettySize=auto;html=1;" parent="1" source="WCPhoEuETA85OgyPvUWW-15" edge="1">
          <mxGeometry relative="1" as="geometry">
            <mxPoint x="170" y="100" as="targetPoint" />
          </mxGeometry>
        </mxCell>
        <mxCell id="WCPhoEuETA85OgyPvUWW-15" value="" style="outlineConnect=0;dashed=0;verticalLabelPosition=bottom;verticalAlign=top;align=center;html=1;shape=mxgraph.aws3.queue;fillColor=#D9A741;gradientColor=none;" parent="1" vertex="1">
          <mxGeometry x="325.25" y="310" width="73.5" height="20" as="geometry" />
        </mxCell>
        <mxCell id="WCPhoEuETA85OgyPvUWW-20" value="G1" style="text;html=1;align=center;verticalAlign=middle;whiteSpace=wrap;rounded=0;" parent="1" vertex="1">
          <mxGeometry x="418" y="300" width="26.25" height="30" as="geometry" />
        </mxCell>
        <mxCell id="WCPhoEuETA85OgyPvUWW-27" style="edgeStyle=orthogonalEdgeStyle;rounded=0;orthogonalLoop=1;jettySize=auto;html=1;" parent="1" source="WCPhoEuETA85OgyPvUWW-25" edge="1">
          <mxGeometry relative="1" as="geometry">
            <mxPoint x="170" y="120" as="targetPoint" />
          </mxGeometry>
        </mxCell>
        <mxCell id="WCPhoEuETA85OgyPvUWW-25" value="" style="outlineConnect=0;dashed=0;verticalLabelPosition=bottom;verticalAlign=top;align=center;html=1;shape=mxgraph.aws3.queue;fillColor=#D9A741;gradientColor=none;" parent="1" vertex="1">
          <mxGeometry x="325.25" y="341" width="73.5" height="20" as="geometry" />
        </mxCell>
        <mxCell id="WCPhoEuETA85OgyPvUWW-26" value="G2" style="text;html=1;align=center;verticalAlign=middle;whiteSpace=wrap;rounded=0;" parent="1" vertex="1">
          <mxGeometry x="420.25" y="331" width="26.25" height="30" as="geometry" />
        </mxCell>
        <mxCell id="WCPhoEuETA85OgyPvUWW-28" style="edgeStyle=orthogonalEdgeStyle;rounded=0;orthogonalLoop=1;jettySize=auto;html=1;entryX=1;entryY=0.5;entryDx=0;entryDy=0;entryPerimeter=0;" parent="1" source="WCPhoEuETA85OgyPvUWW-10" target="WCPhoEuETA85OgyPvUWW-15" edge="1">
          <mxGeometry relative="1" as="geometry">
            <Array as="points">
              <mxPoint x="419" y="192" />
              <mxPoint x="419" y="320" />
            </Array>
          </mxGeometry>
        </mxCell>
        <mxCell id="WCPhoEuETA85OgyPvUWW-29" style="edgeStyle=orthogonalEdgeStyle;rounded=0;orthogonalLoop=1;jettySize=auto;html=1;entryX=1;entryY=0.5;entryDx=0;entryDy=0;entryPerimeter=0;" parent="1" source="WCPhoEuETA85OgyPvUWW-10" target="WCPhoEuETA85OgyPvUWW-25" edge="1">
          <mxGeometry relative="1" as="geometry">
            <Array as="points">
              <mxPoint x="419" y="192" />
              <mxPoint x="419" y="351" />
            </Array>
          </mxGeometry>
        </mxCell>
        <mxCell id="WCPhoEuETA85OgyPvUWW-34" style="edgeStyle=orthogonalEdgeStyle;rounded=0;orthogonalLoop=1;jettySize=auto;html=1;entryX=0;entryY=0.5;entryDx=0;entryDy=0;entryPerimeter=0;" parent="1" source="WCPhoEuETA85OgyPvUWW-30" target="WCPhoEuETA85OgyPvUWW-35" edge="1">
          <mxGeometry relative="1" as="geometry">
            <Array as="points">
              <mxPoint x="363" y="400" />
              <mxPoint x="662" y="400" />
            </Array>
          </mxGeometry>
        </mxCell>
        <mxCell id="WCPhoEuETA85OgyPvUWW-30" value="" style="outlineConnect=0;dashed=0;verticalLabelPosition=bottom;verticalAlign=top;align=center;html=1;shape=mxgraph.aws3.queue;fillColor=#D9A741;gradientColor=none;" parent="1" vertex="1">
          <mxGeometry x="326.25" y="370" width="73.5" height="20" as="geometry" />
        </mxCell>
        <mxCell id="WCPhoEuETA85OgyPvUWW-31" style="edgeStyle=orthogonalEdgeStyle;rounded=0;orthogonalLoop=1;jettySize=auto;html=1;entryX=1;entryY=0.5;entryDx=0;entryDy=0;entryPerimeter=0;" parent="1" source="WCPhoEuETA85OgyPvUWW-10" target="WCPhoEuETA85OgyPvUWW-30" edge="1">
          <mxGeometry relative="1" as="geometry">
            <Array as="points">
              <mxPoint x="420" y="192" />
              <mxPoint x="420" y="380" />
            </Array>
          </mxGeometry>
        </mxCell>
        <mxCell id="WCPhoEuETA85OgyPvUWW-32" value="" style="outlineConnect=0;dashed=0;verticalLabelPosition=bottom;verticalAlign=top;align=center;html=1;shape=mxgraph.aws3.queue;fillColor=#D9A741;gradientColor=none;" parent="1" vertex="1">
          <mxGeometry x="690" y="182.5" width="73.5" height="20" as="geometry" />
        </mxCell>
        <mxCell id="WCPhoEuETA85OgyPvUWW-35" value="" style="outlineConnect=0;dashed=0;verticalLabelPosition=bottom;verticalAlign=top;align=center;html=1;shape=mxgraph.aws3.queue;fillColor=#D9A741;gradientColor=none;" parent="1" vertex="1">
          <mxGeometry x="691" y="390" width="73.5" height="20" as="geometry" />
        </mxCell>
        <mxCell id="WCPhoEuETA85OgyPvUWW-36" style="edgeStyle=orthogonalEdgeStyle;rounded=0;orthogonalLoop=1;jettySize=auto;html=1;entryX=0;entryY=0.5;entryDx=0;entryDy=0;entryPerimeter=0;" parent="1" source="WCPhoEuETA85OgyPvUWW-10" target="WCPhoEuETA85OgyPvUWW-32" edge="1">
          <mxGeometry relative="1" as="geometry" />
        </mxCell>
        <mxCell id="LjFhSQzkal9X9VjSz4Ko-1" value="Fail" style="text;html=1;align=center;verticalAlign=middle;whiteSpace=wrap;rounded=0;" vertex="1" parent="1">
          <mxGeometry x="682" y="365" width="60" height="30" as="geometry" />
        </mxCell>
        <mxCell id="LjFhSQzkal9X9VjSz4Ko-2" value="Success" style="text;html=1;align=center;verticalAlign=middle;whiteSpace=wrap;rounded=0;" vertex="1" parent="1">
          <mxGeometry x="675" y="158.5" width="90" height="30" as="geometry" />
        </mxCell>
      </root>
    </mxGraphModel>
  </diagram>
</mxfile>
